<svg viewBox="0 0 200 200" xmlns="http://www.w3.org/2000/svg">
  <!-- 蓝色外框（安全盾牌） -->
  <path d="M 60 40 L 100 20 L 140 40 L 145 90 Q 100 150 100 150 Q 55 90 60 90 Z" 
        fill="none" stroke="#1e5a96" stroke-width="8" stroke-linejoin="round"/>
  
  <!-- 橙色 S 形（安全性和改进） -->
  <path d="M 85 70 Q 100 60 115 75 Q 100 90 75 95 Q 100 105 115 125" 
        fill="none" stroke="#f97316" stroke-width="7" stroke-linecap="round" stroke-linejoin="round"/>
  
  <!-- 绿色上升箭头 -->
  <path d="M 135 50 L 160 35 L 155 65 Z" fill="#22c55e"/>
  
  <!-- 绿色下降箭头 -->
  <path d="M 70 110 L 50 135 L 60 110 Z" fill="#22c55e"/>
  
  <!-- 安全帽 -->
  <g transform="translate(95, 65)">
    <ellipse cx="0" cy="0" rx="8" ry="12" fill="#1e5a96"/>
    <path d="M -6 2 L 6 2 L 8 5 Q 8 8 0 9 Q -8 8 -8 5 Z" fill="#f97316"/>
  </g>
</svg>
